<?xml version="1.0" encoding="UTF-8" standalone="no"?>
<svg
   xmlns:dc="http://purl.org/dc/elements/1.1/"
   xmlns:cc="http://creativecommons.org/ns#"
   xmlns:rdf="http://www.w3.org/1999/02/22-rdf-syntax-ns#"
   xmlns:svg="http://www.w3.org/2000/svg"
   xmlns="http://www.w3.org/2000/svg"
   xmlns:xlink="http://www.w3.org/1999/xlink"
   xmlns:sodipodi="http://sodipodi.sourceforge.net/DTD/sodipodi-0.dtd"
   xmlns:inkscape="http://www.inkscape.org/namespaces/inkscape"
   inkscape:export-ydpi="64"
   inkscape:export-xdpi="64"
   inkscape:export-filename="C:\Users\comma\Documents\Burning Wheel\burningRepublic2.png"
   width="99.071129mm"
   height="99.071129mm"
   viewBox="0 0 99.071129 99.071129"
   version="1.1"
   id="svg8"
   sodipodi:docname="burningRepublic.svg"
   inkscape:version="1.0rc1 (09960d6f05, 2020-04-09)">
  <defs
     id="defs2">
    <pattern
       patternUnits="userSpaceOnUse"
       width="42.142855"
       height="32.321424"
       patternTransform="translate(214.99999,528.39284)"
       id="pattern863">
      <path
         d="M 0,0 H 42.142855 V 32.321424 H 0 Z"
         style="fill:#ffffff;fill-opacity:1;stroke:none;stroke-width:20;stroke-miterlimit:4;stroke-dasharray:none;stroke-opacity:1"
         id="rect853"
         inkscape:connector-curvature="0" />
    </pattern>
  </defs>
  <sodipodi:namedview
     fit-margin-bottom="0"
     fit-margin-right="0"
     fit-margin-left="0"
     fit-margin-top="0"
     inkscape:pagecheckerboard="true"
     inkscape:snap-global="false"
     inkscape:snap-nodes="false"
     inkscape:object-nodes="false"
     id="base"
     pagecolor="#ffffff"
     bordercolor="#666666"
     borderopacity="1.0"
     inkscape:pageopacity="0.0"
     inkscape:pageshadow="2"
     inkscape:zoom="2.8"
     inkscape:cx="139.10042"
     inkscape:cy="141.90782"
     inkscape:document-units="mm"
     inkscape:current-layer="layer1"
     inkscape:document-rotation="0"
     showgrid="false"
     inkscape:snap-object-midpoints="false"
     inkscape:snap-midpoints="false"
     inkscape:snap-intersection-paths="false"
     inkscape:window-width="3840"
     inkscape:window-height="2081"
     inkscape:window-x="-9"
     inkscape:window-y="-9"
     inkscape:window-maximized="1"
     inkscape:snap-others="false"
     showguides="true"
     inkscape:snap-center="false">
    <sodipodi:guide
       position="46.027342,48.479987"
       orientation="0,793.70079"
       id="guide7526" />
    <sodipodi:guide
       position="156.53626,193.67416"
       orientation="1122.5197,0"
       id="guide7528" />
    <sodipodi:guide
       position="156.53626,-103.32585"
       orientation="0,-793.70079"
       id="guide7530" />
    <sodipodi:guide
       position="49.53552,49.535708"
       orientation="-1122.5197,0"
       id="guide7532" />
  </sodipodi:namedview>
  <metadata
     id="metadata5">
    <rdf:RDF>
      <cc:Work
         rdf:about="">
        <dc:format>image/svg+xml</dc:format>
        <dc:type
           rdf:resource="http://purl.org/dc/dcmitype/StillImage" />
        <dc:title></dc:title>
      </cc:Work>
    </rdf:RDF>
  </metadata>
  <g
     transform="translate(-53.463741,-94.603027)"
     inkscape:label="Layer 1"
     inkscape:groupmode="layer"
     id="layer1">
    <g
       style="fill:none;fill-opacity:1;stroke:#000000;stroke-width:5.9;stroke-miterlimit:4;stroke-dasharray:none;stroke-opacity:1"
       id="g7535"
       transform="translate(3.308082,0.12966439)">
      <circle
         r="46.585564"
         cy="144.00893"
         cx="99.691223"
         id="path835"
         style="fill:none;fill-opacity:1;stroke:#000000;stroke-width:5.9;stroke-miterlimit:4;stroke-dasharray:none;stroke-opacity:1" />
    </g>
    <g
       id="g857"
       style="opacity:1;stroke:#000000;stroke-width:1.58911;stroke-miterlimit:4;stroke-dasharray:none;stroke-opacity:1"
       transform="matrix(0.94392668,0,0,0.94392668,8.898056,8.2047157)">
      <path
         style="color:#000000;font-style:normal;font-variant:normal;font-weight:normal;font-stretch:normal;font-size:medium;line-height:normal;font-family:sans-serif;font-variant-ligatures:normal;font-variant-position:normal;font-variant-caps:normal;font-variant-numeric:normal;font-variant-alternates:normal;font-variant-east-asian:normal;font-feature-settings:normal;font-variation-settings:normal;text-indent:0;text-align:start;text-decoration:none;text-decoration-line:none;text-decoration-style:solid;text-decoration-color:#000000;letter-spacing:normal;word-spacing:normal;text-transform:none;writing-mode:lr-tb;direction:ltr;text-orientation:mixed;dominant-baseline:auto;baseline-shift:baseline;text-anchor:start;white-space:normal;shape-padding:0;shape-margin:0;inline-size:0;clip-rule:nonzero;display:inline;overflow:visible;visibility:visible;isolation:auto;mix-blend-mode:normal;color-interpolation:sRGB;color-interpolation-filters:linearRGB;solid-color:#000000;solid-opacity:1;vector-effect:none;fill:#ffffff;fill-opacity:1;fill-rule:nonzero;stroke:#000000;stroke-width:1.58911;stroke-linecap:butt;stroke-linejoin:miter;stroke-miterlimit:4;stroke-dasharray:none;stroke-dashoffset:0;stroke-opacity:1;color-rendering:auto;image-rendering:auto;shape-rendering:auto;text-rendering:auto;enable-background:accumulate;stop-color:#000000;stop-opacity:1"
         d="m 137.56016,144.00893 c 0,20.91443 -16.9545,37.86893 -37.868937,37.86893 -20.914433,0 -37.868931,-16.9545 -37.868934,-37.86893 -3e-6,-20.91444 16.954497,-37.86894 37.868934,-37.86894 20.914437,0 37.868937,16.9545 37.868937,37.86894 z"
         id="path859"
         inkscape:connector-curvature="0" />
      <path
         style="color:#000000;font-style:normal;font-variant:normal;font-weight:normal;font-stretch:normal;font-size:medium;line-height:normal;font-family:sans-serif;font-variant-ligatures:normal;font-variant-position:normal;font-variant-caps:normal;font-variant-numeric:normal;font-variant-alternates:normal;font-variant-east-asian:normal;font-feature-settings:normal;font-variation-settings:normal;text-indent:0;text-align:start;text-decoration:none;text-decoration-line:none;text-decoration-style:solid;text-decoration-color:#000000;letter-spacing:normal;word-spacing:normal;text-transform:none;writing-mode:lr-tb;direction:ltr;text-orientation:mixed;dominant-baseline:auto;baseline-shift:baseline;text-anchor:start;white-space:normal;shape-padding:0;shape-margin:0;inline-size:0;clip-rule:nonzero;display:inline;overflow:visible;visibility:visible;isolation:auto;mix-blend-mode:normal;color-interpolation:sRGB;color-interpolation-filters:linearRGB;solid-color:#000000;solid-opacity:1;vector-effect:none;fill:#000000;fill-opacity:1;fill-rule:nonzero;stroke:#000000;stroke-width:1.58911;stroke-linecap:butt;stroke-linejoin:miter;stroke-miterlimit:4;stroke-dasharray:none;stroke-dashoffset:0;stroke-opacity:1;color-rendering:auto;image-rendering:auto;shape-rendering:auto;text-rendering:auto;enable-background:accumulate;stop-color:#000000;stop-opacity:1"
         d="m 99.691406,103.49414 c -22.344352,0 -40.515628,18.17127 -40.515625,40.51563 3e-6,22.34434 18.171277,40.51367 40.515625,40.51367 22.344354,0 40.513674,-18.16933 40.513674,-40.51367 0,-22.34436 -18.16932,-40.51563 -40.513674,-40.51563 z m 0,5.29102 c 19.484524,0 35.222664,15.74008 35.222654,35.22461 0,19.48451 -15.73813,35.22265 -35.222654,35.22265 -19.484518,0 -35.222653,-15.73814 -35.222656,-35.22265 -3e-6,-19.48453 15.738135,-35.22461 35.222656,-35.22461 z"
         id="path861"
         inkscape:connector-curvature="0" />
    </g>
    <path
       style="fill:#ffffff;fill-opacity:1;stroke:none;stroke-width:0.1;stroke-miterlimit:4;stroke-dasharray:none;stroke-opacity:1"
       d="m 79.946642,163.05338 4.430344,4.31223 -7.072625,10.37992 -7.606889,-7.74838 z"
       id="use7539"
       inkscape:connector-curvature="0"
       sodipodi:nodetypes="ccccc" />
    <path
       id="use7547"
       style="fill:#ffffff;fill-opacity:1;stroke:#000000;stroke-width:0;stroke-miterlimit:4;stroke-dasharray:none;stroke-opacity:1"
       d="m 125.50899,124.70593 -3.07724,-3.07725 6.42546,-10.79127 7.44234,7.44234 z"
       inkscape:tile-x0="-5.7376079"
       inkscape:tile-y0="100.71444"
       inkscape:connector-curvature="0"
       inkscape:transform-center-y="-35.745367"
       sodipodi:nodetypes="ccccc" />
    <path
       id="use7537"
       style="fill:#000000;fill-opacity:1;stroke:#000000;stroke-width:0.258456;stroke-miterlimit:4;stroke-dasharray:none;stroke-opacity:1"
       d="m 100.82344,173.79631 h 4.35188 l 3.08572,5.70299 H 97.735982 Z"
       inkscape:tile-x0="-5.7376079"
       inkscape:tile-y0="100.71444"
       inkscape:connector-curvature="0"
       inkscape:transform-center-y="-16.743635"
       sodipodi:nodetypes="ccccc" />
    <path
       id="use7545"
       style="fill:#000000;fill-opacity:1;stroke:#000000;stroke-width:0.0925092;stroke-miterlimit:4;stroke-dasharray:none;stroke-opacity:1"
       d="m 105.17509,114.48083 h -4.35188 l -3.22163,-5.68288 h 10.79386 z"
       inkscape:tile-x0="-5.7376079"
       inkscape:tile-y0="100.71444"
       inkscape:connector-curvature="0"
       inkscape:transform-center-y="-17.078516"
       sodipodi:nodetypes="ccccc" />
    <path
       id="use7549"
       style="fill:#000000;fill-opacity:1;stroke:#000000;stroke-width:0.0904557;stroke-miterlimit:4;stroke-dasharray:none;stroke-opacity:1"
       d="m 132.657,146.3144 v -4.35189 l 5.70308,-3.08659 v 10.52506 z"
       inkscape:tile-x0="-5.7376079"
       inkscape:tile-y0="100.71444"
       inkscape:connector-curvature="0"
       inkscape:transform-center-y="-35.745371"
       sodipodi:nodetypes="ccccc" />
    <path
       id="use7551"
       style="fill:#ffffff;fill-opacity:1;stroke:#000000;stroke-width:0;stroke-miterlimit:4;stroke-dasharray:none;stroke-opacity:1"
       d="m 122.43191,166.6483 3.07724,-3.07725 10.7904,6.4261 -7.44234,7.44234 z"
       inkscape:tile-x0="-5.7376079"
       inkscape:tile-y0="100.71444"
       inkscape:connector-curvature="0"
       inkscape:transform-center-y="-35.745374"
       sodipodi:nodetypes="ccccc" />
    <ellipse
       style="fill:#000000;fill-opacity:1;stroke:none;stroke-width:0;stroke-miterlimit:4;stroke-dasharray:none;stroke-dashoffset:0;stroke-opacity:1"
       id="path7555"
       cx="102.99851"
       cy="144.13846"
       rx="13.055635"
       ry="13.055634" />
    <rect
       style="fill:#000000;fill-opacity:1;stroke:none;stroke-width:0;stroke-miterlimit:4;stroke-dasharray:none;stroke-dashoffset:0;stroke-opacity:1"
       id="rect7557"
       width="20.765518"
       height="4.3518782"
       x="111.89148"
       y="141.96252"
       inkscape:tile-cx="0.00079471861"
       inkscape:tile-cy="145.1943"
       inkscape:tile-w="21.999078"
       inkscape:tile-h="4.6103987"
       inkscape:tile-x0="9.4212501"
       inkscape:tile-y0="142.88897"
       inkscape:transform-center-x="-19.274978"
       inkscape:transform-center-y="-0.00012449407" />
    <use
       transform="matrix(1.25,0,0,1.25,-30.56856,-36.034616)"
       style="stroke-width:5;stroke-miterlimit:4;stroke-dasharray:none"
       x="0"
       y="0"
       inkscape:tiled-clone-of="#rect7557"
       xlink:href="#rect7557"
       id="use7591"
       inkscape:transform-center-x="-19.275529"
       inkscape:transform-center-y="100.79077"
       width="100%"
       height="100%" />
    <use
       style="stroke-width:5;stroke-miterlimit:4;stroke-dasharray:none"
       x="0"
       y="0"
       inkscape:tiled-clone-of="#rect7557"
       xlink:href="#rect7557"
       transform="matrix(0.85527137,0.87518619,-0.85527137,0.87518619,132.03993,-78.499581)"
       id="use7593"
       inkscape:transform-center-x="-9.5919155"
       inkscape:transform-center-y="82.395925"
       width="100%"
       height="100%" />
    <use
       style="stroke-width:5;stroke-miterlimit:4;stroke-dasharray:none"
       x="0"
       y="0"
       inkscape:tiled-clone-of="#rect7557"
       xlink:href="#rect7557"
       transform="matrix(0,1.25,-1.25,0,283.17245,10.57075)"
       id="use7595"
       inkscape:transform-center-x="-0.00066834126"
       inkscape:transform-center-y="120.06587"
       width="100%"
       height="100%" />
    <use
       style="stroke:#000000;stroke-width:10.0602;stroke-miterlimit:4;stroke-dasharray:none;stroke-opacity:1"
       x="0"
       y="0"
       inkscape:tiled-clone-of="#rect7557"
       xlink:href="#rect7557"
       transform="matrix(-0.89552627,0.86480977,-0.89552627,-0.86480977,330.87049,173.47491)"
       id="use7597"
       inkscape:transform-center-x="10.042434"
       inkscape:transform-center-y="81.419131"
       width="100%"
       height="100%" />
    <use
       style="stroke-width:5;stroke-miterlimit:4;stroke-dasharray:none"
       x="0"
       y="0"
       inkscape:tiled-clone-of="#rect7557"
       xlink:href="#rect7557"
       transform="matrix(-1.25,0,0,-1.25,236.56708,324.31176)"
       id="use7599"
       inkscape:transform-center-x="19.274427"
       inkscape:transform-center-y="100.79101"
       width="100%"
       height="100%" />
    <use
       style="stroke-width:5;stroke-miterlimit:4;stroke-dasharray:none"
       x="0"
       y="0"
       inkscape:tiled-clone-of="#rect7557"
       xlink:href="#rect7557"
       transform="matrix(-0.88388348,-0.88388348,0.88388348,-0.88388348,70.04429,365.98696)"
       id="use7601"
       inkscape:transform-center-x="13.628999"
       inkscape:transform-center-y="87.161505"
       width="100%"
       height="100%" />
    <use
       style="stroke-width:5;stroke-miterlimit:4;stroke-dasharray:none"
       x="0"
       y="0"
       inkscape:tiled-clone-of="#rect7557"
       xlink:href="#rect7557"
       transform="matrix(0,-1.25,1.25,0,-77.173936,277.7064)"
       id="use7603"
       inkscape:transform-center-x="-0.00043501332"
       inkscape:transform-center-y="81.515913"
       width="100%"
       height="100%" />
    <use
       style="stroke-width:5;stroke-miterlimit:4;stroke-dasharray:none"
       x="0"
       y="0"
       inkscape:tiled-clone-of="#rect7557"
       xlink:href="#rect7557"
       transform="matrix(0.82928196,-0.85224954,0.82928196,0.85224954,-107.78144,115.13489)"
       id="use7605"
       inkscape:transform-center-x="-9.3003294"
       inkscape:transform-center-y="61.121364"
       width="100%"
       height="100%" />
    <path
       inkscape:transform-center-x="32.509277"
       inkscape:connector-curvature="0"
       inkscape:tile-y0="139.27684"
       inkscape:tile-x0="-37.802786"
       d="m 73.341525,141.96274 v 4.35189 l -5.703078,3.08635 v -10.52506 z"
       style="fill:#000000;fill-opacity:1;stroke:#000000;stroke-width:0.258456;stroke-miterlimit:4;stroke-dasharray:none;stroke-opacity:1"
       id="use7697"
       sodipodi:nodetypes="ccccc" />
    <path
       inkscape:transform-center-x="32.509277"
       inkscape:connector-curvature="0"
       inkscape:tile-y0="139.27684"
       inkscape:tile-x0="-37.802786"
       d="m 83.566617,121.62884 -3.077246,3.07725 -6.215374,-1.84981 7.442346,-7.44234 z"
       style="fill:#000000;fill-opacity:1;stroke:#000000;stroke-width:0.0904438;stroke-miterlimit:4;stroke-dasharray:none;stroke-opacity:1"
       id="use7699"
       inkscape:transform-center-y="1.6006283e-06"
       sodipodi:nodetypes="ccccc" />
    <rect
       style="fill:#000000;fill-opacity:1;stroke:#000000;stroke-width:0.922562;stroke-miterlimit:4;stroke-dasharray:none;stroke-dashoffset:0;stroke-opacity:1"
       id="rect8410"
       width="2.1114528"
       height="9.755868"
       x="101.94279"
       y="179.64996"
       inkscape:transform-center-y="40.389439"
       inkscape:tile-cx="0"
       inkscape:tile-cy="145.19416"
       inkscape:tile-w="3.0340148"
       inkscape:tile-h="10.67843"
       inkscape:tile-x0="-1.5170074"
       inkscape:tile-y0="180.24439" />
    <use
       style="stroke:#000000;stroke-width:100;stroke-miterlimit:4;stroke-dasharray:none;stroke-opacity:1"
       x="0"
       y="0"
       inkscape:tiled-clone-of="#rect8410"
       xlink:href="#rect8410"
       id="use8460"
       inkscape:transform-center-y="147.16765"
       width="100%"
       height="100%" />
    <use
       style="stroke:#000000;stroke-width:100;stroke-miterlimit:4;stroke-dasharray:none;stroke-opacity:1"
       x="0"
       y="0"
       inkscape:tiled-clone-of="#rect8410"
       xlink:href="#rect8410"
       transform="rotate(90,102.99851,144.13844)"
       id="use8464"
       inkscape:transform-center-x="40.389447"
       inkscape:transform-center-y="106.7782"
       width="100%"
       height="100%" />
    <use
       style="stroke:#000000;stroke-width:100;stroke-miterlimit:4;stroke-dasharray:none;stroke-opacity:1"
       x="0"
       y="0"
       inkscape:tiled-clone-of="#rect8410"
       xlink:href="#rect8410"
       transform="rotate(135,102.99851,144.13844)"
       id="use8466"
       inkscape:transform-center-x="28.559652"
       inkscape:transform-center-y="78.218552"
       width="100%"
       height="100%" />
    <use
       style="stroke:#000000;stroke-width:100;stroke-miterlimit:4;stroke-dasharray:none;stroke-opacity:1"
       x="0"
       y="0"
       inkscape:tiled-clone-of="#rect8410"
       xlink:href="#rect8410"
       transform="rotate(180,102.99851,144.13844)"
       id="use8468"
       inkscape:transform-center-y="66.388757"
       width="100%"
       height="100%" />
    <use
       style="stroke:#000000;stroke-width:100;stroke-miterlimit:4;stroke-dasharray:none;stroke-opacity:1"
       x="0"
       y="0"
       inkscape:tiled-clone-of="#rect8410"
       xlink:href="#rect8410"
       transform="rotate(-90,102.99851,144.13845)"
       id="use8472"
       inkscape:transform-center-x="-40.389447"
       inkscape:transform-center-y="106.7782"
       width="100%"
       height="100%" />
    <path
       id="rect8482"
       style="fill:#000000;fill-opacity:1;stroke:#000000;stroke-width:0.41118;stroke-miterlimit:4;stroke-dasharray:none;stroke-dashoffset:0;stroke-opacity:1"
       d="m 94.260676,103.50007 c 5.435168,-1.79983 12.451874,-1.74926 17.475744,0 l -1.30758,3.46601 -15.038147,0.17775 z"
       inkscape:connector-curvature="0"
       sodipodi:nodetypes="ccccc"
       inkscape:transform-center-x="-3.42e-05"
       inkscape:transform-center-y="-39.481989"
       inkscape:tile-cx="-8.0032296e-16"
       inkscape:tile-cy="145.19417"
       inkscape:tile-w="17.998664"
       inkscape:tile-h="5.3903232"
       inkscape:tile-x0="-8.9939469"
       inkscape:tile-y0="103.01661" />
    <use
       style="fill:#000000;fill-opacity:1;stroke:#000000;stroke-width:100;stroke-miterlimit:4;stroke-dasharray:none;stroke-opacity:1"
       x="0"
       y="0"
       inkscape:tiled-clone-of="#rect8482"
       xlink:href="#rect8482"
       id="use8501"
       inkscape:transform-center-x="-3.42e-05"
       inkscape:transform-center-y="67.296225"
       width="100%"
       height="100%" />
    <use
       style="fill:#000000;fill-opacity:1;stroke:#000000;stroke-width:100;stroke-miterlimit:4;stroke-dasharray:none;stroke-opacity:1"
       x="0"
       y="0"
       inkscape:tiled-clone-of="#rect8482"
       xlink:href="#rect8482"
       transform="rotate(45,102.99851,144.13845)"
       id="use8503"
       inkscape:transform-center-x="-27.846956"
       inkscape:transform-center-y="78.805686"
       width="100%"
       height="100%" />
    <use
       style="fill:#000000;fill-opacity:1;stroke:#000000;stroke-width:100;stroke-miterlimit:4;stroke-dasharray:none;stroke-opacity:1"
       x="0"
       y="0"
       inkscape:tiled-clone-of="#rect8482"
       xlink:href="#rect8482"
       transform="rotate(90,102.99851,144.13845)"
       id="use8505"
       inkscape:transform-center-x="-39.481988"
       inkscape:transform-center-y="106.77825"
       width="100%"
       height="100%" />
    <use
       style="fill:#000000;fill-opacity:1;stroke:#000000;stroke-width:100;stroke-miterlimit:4;stroke-dasharray:none;stroke-opacity:1"
       x="0"
       y="0"
       inkscape:tiled-clone-of="#rect8482"
       xlink:href="#rect8482"
       transform="rotate(135,102.99851,144.13845)"
       id="use8507"
       inkscape:transform-center-x="-27.972527"
       inkscape:transform-center-y="134.62517"
       width="100%"
       height="100%" />
    <use
       style="fill:#000000;fill-opacity:1;stroke:#000000;stroke-width:100;stroke-miterlimit:4;stroke-dasharray:none;stroke-opacity:1"
       x="0"
       y="0"
       inkscape:tiled-clone-of="#rect8482"
       xlink:href="#rect8482"
       transform="rotate(180,102.99851,144.13845)"
       id="use8509"
       inkscape:transform-center-x="3.42e-05"
       inkscape:transform-center-y="146.2602"
       width="100%"
       height="100%" />
    <use
       style="fill:#000000;fill-opacity:1;stroke:#000000;stroke-width:100;stroke-miterlimit:4;stroke-dasharray:none;stroke-opacity:1"
       x="0"
       y="0"
       inkscape:tiled-clone-of="#rect8482"
       xlink:href="#rect8482"
       transform="rotate(-135,102.99851,144.13845)"
       id="use8511"
       inkscape:transform-center-x="27.846956"
       inkscape:transform-center-y="134.75074"
       width="100%"
       height="100%" />
    <use
       style="fill:#000000;fill-opacity:1;stroke:#000000;stroke-width:100;stroke-miterlimit:4;stroke-dasharray:none;stroke-opacity:1"
       x="0"
       y="0"
       inkscape:tiled-clone-of="#rect8482"
       xlink:href="#rect8482"
       transform="rotate(-90,102.99851,144.13846)"
       id="use8513"
       inkscape:transform-center-x="39.481988"
       inkscape:transform-center-y="106.77818"
       width="100%"
       height="100%" />
    <use
       style="fill:#000000;fill-opacity:1;stroke:#000000;stroke-width:100;stroke-miterlimit:4;stroke-dasharray:none;stroke-opacity:1"
       x="0"
       y="0"
       inkscape:tiled-clone-of="#rect8482"
       xlink:href="#rect8482"
       transform="rotate(-45,102.99851,144.13845)"
       id="use8515"
       inkscape:transform-center-x="27.972527"
       inkscape:transform-center-y="78.931257"
       width="100%"
       height="100%" />
    <path
       transform="scale(0.26458333)"
       inkscape:connector-curvature="0"
       id="path885"
       d="m 380.27525,711.0033 c -4.78827,-0.2456 -13.46182,-1.25969 -19.28235,-2.25445 -45.09887,-7.70757 -85.48805,-34.15819 -110.70586,-72.50057 -16.06816,-24.43081 -25.30498,-52.25922 -27.17599,-81.875 l -0.24255,-3.83929 h 3.42871 c 4.0069,0 3.52754,-0.72295 4.14407,6.25 0.67379,7.6205 3.73687,21.41414 4.85021,21.84137 0.2497,0.0958 2.53602,-0.48018 5.08073,-1.28 2.5447,-0.79982 4.85493,-1.45422 5.13384,-1.45422 0.35268,0 0.81084,1.27789 1.50455,4.19643 3.26036,13.71698 10.24886,30.17129 17.97125,42.313 1.36471,2.14571 1.46198,2.43576 0.91065,2.71568 -0.3395,0.17236 -2.54584,1.16686 -4.90298,2.20999 -2.35714,1.04313 -4.41857,2.01108 -4.58095,2.15099 -0.61916,0.53348 4.10118,8.70605 8.44899,14.62819 9.43934,12.85729 22.01554,24.09727 35.41768,31.65456 4.58084,2.58308 3.91349,2.85143 6.77629,-2.72482 2.81442,-5.48203 2.52736,-5.24262 4.65514,-3.88226 12.09034,7.72977 29.07714,14.82238 43.56857,18.19147 1.96428,0.45668 3.61771,0.85834 3.67427,0.89258 0.0566,0.0343 -0.79525,2.43203 -1.89292,5.3284 -1.09767,2.89638 -1.94752,5.31033 -1.88856,5.36433 0.26836,0.24577 6.47988,2.07845 9.21435,2.71864 4.02325,0.94191 11.13098,2.00447 15.44643,2.30913 l 3.48214,0.24584 v 3.52249 c 0,2.61592 -0.1149,3.50512 -0.44643,3.45497 -0.24553,-0.0371 -1.41071,-0.11699 -2.58928,-0.17745 z"
       style="fill:#a02c2c;fill-opacity:1;stroke:#000000;stroke-width:0.377953;stroke-miterlimit:4;stroke-dasharray:none;stroke-opacity:1" />
    <path
       transform="scale(0.26458333)"
       inkscape:connector-curvature="0"
       id="path887"
       d="m 395.09667,707.77745 v -3.51458 l 5.98215,-0.61171 c 3.29018,-0.33643 7.91071,-1.00843 10.26785,-1.49333 4.27587,-0.8796 11.50992,-2.83613 11.88942,-3.21563 0.15719,-0.15719 -2.15929,-8.1549 -2.98601,-10.30929 -0.12692,-0.33074 1.13107,-0.78527 4.43885,-1.60382 13.61203,-3.36844 27.94082,-9.31506 40.0506,-16.62147 2.45536,-1.48144 4.57013,-2.58137 4.6995,-2.44429 0.22719,0.24073 3.60413,7.60002 4.26631,9.29747 l 0.32533,0.83396 3.47943,-1.84813 c 13.84943,-7.35628 28.50471,-20.82424 38.27807,-35.17692 2.56526,-3.76723 6.45136,-10.49909 6.45136,-11.17565 0,-0.2199 -2.16964,-1.54492 -4.82143,-2.94449 -2.65178,-1.39956 -4.82143,-2.61333 -4.82143,-2.69727 0,-0.0839 1.12254,-2.01667 2.49454,-4.29495 7.21374,-11.9789 13.32721,-26.80651 16.47946,-39.96929 l 1.19985,-5.01022 4.93626,1.88522 c 2.71493,1.03687 5.14139,1.88522 5.39211,1.88522 0.58542,0 2.46203,-6.08952 3.58878,-11.64539 0.87683,-4.3236 1.97921,-12.80281 1.98,-15.22961 l 4.3e-4,-1.33929 h 3.44794 3.44793 l -0.21888,4.73215 c -0.77047,16.65722 -5.56431,37.16804 -12.58379,53.84068 -18.07078,42.9217 -52.93198,76.10815 -96.80357,92.15309 -13.48826,4.933 -30.88304,8.64609 -44.25391,9.44647 -1.96429,0.11757 -4.25447,0.29745 -5.08929,0.39972 l -1.51786,0.18595 z"
       style="fill:#a02c2c;fill-opacity:1;stroke:#000000;stroke-width:0.377953;stroke-miterlimit:4;stroke-dasharray:none;stroke-opacity:1" />
    <path
       transform="scale(0.26458333)"
       inkscape:connector-curvature="0"
       id="path889"
       d="m 222.9575,537.58757 c 0.0155,-4.88991 1.51867,-17.12079 3.06147,-24.91072 4.95777,-25.03291 15.23204,-47.98708 30.57106,-68.30008 3.28792,-4.35408 8.81951,-10.94359 10.25499,-12.21625 l 0.78381,-0.6949 2.36573,2.36573 2.36573,2.36573 -2.49599,2.97203 c -3.43128,4.0857 -5.337,6.64133 -8.11011,10.87593 -2.3956,3.65812 -5.77406,9.71726 -5.53654,9.92957 0.071,0.0634 2.32547,1.26688 5.01002,2.67434 l 4.881,2.559 -2.63357,4.42241 c -7.30112,12.26037 -12.77352,25.4185 -16.25506,39.0845 -0.77096,3.02626 -1.45956,5.56009 -1.53021,5.63074 -0.10051,0.10052 -6.55945,-2.25467 -9.93087,-3.62119 -0.47826,-0.19385 -0.758,0.28168 -1.50214,2.55354 -1.93084,5.89489 -3.50298,13.8664 -3.96673,20.11319 -0.12395,1.66964 -0.30581,3.55803 -0.40414,4.19643 l -0.17878,1.16071 h -3.37668 -3.37667 z"
       style="fill:#a02c2c;fill-opacity:1;stroke:#000000;stroke-width:0.377953;stroke-miterlimit:4;stroke-dasharray:none;stroke-opacity:1" />
    <path
       transform="scale(0.26458333)"
       inkscape:connector-curvature="0"
       id="path891"
       d="m 278.31714,425.36166 -2.29462,-2.3152 1.05494,-1.11371 c 1.67211,-1.76528 8.53515,-7.4299 13.01921,-10.7458 8.39482,-6.20786 15.43855,-10.53628 24.64286,-15.14322 20.47825,-10.24976 41.10675,-15.77887 65.26786,-17.49392 l 3.30357,-0.2345 v 3.55548 3.55548 l -3.35522,0.22039 c -9.01401,0.59211 -25.23411,4.10293 -24.75593,5.35839 0.52492,1.37821 3.15011,10.31818 3.05156,10.39197 -0.0654,0.049 -2.5222,0.69689 -5.45947,1.43976 -13.27495,3.3574 -27.14713,9.17001 -39.11716,16.39058 -2.45172,1.47892 -4.48388,2.65918 -4.51594,2.62279 -0.032,-0.0364 -1.06007,-2.31615 -2.28449,-5.06615 -1.22442,-2.75 -2.26974,-5.05071 -2.32293,-5.11267 -0.16413,-0.19122 -4.46803,2.07456 -7.84756,4.13132 -4.18406,2.54639 -8.48357,5.65373 -12.59196,9.10044 -1.81844,1.52557 -3.34987,2.77376 -3.40318,2.77376 -0.0533,0 -1.1295,-1.04184 -2.39154,-2.31519 z"
       style="fill:#a02c2c;fill-opacity:1;stroke:#000000;stroke-width:0.377953;stroke-miterlimit:4;stroke-dasharray:none;stroke-opacity:1" />
    <path
       transform="scale(0.26458333)"
       inkscape:connector-curvature="0"
       id="path893"
       d="m 548.51573,535.98042 c -0.64874,-7.59899 -1.87997,-14.4992 -3.80935,-21.34862 -0.82416,-2.92586 -1.2977,-4.07468 -1.62741,-3.94815 -1.878,0.72065 -10.19345,3.11538 -10.33306,2.97577 -0.0961,-0.0961 -0.65581,-2.08411 -1.24389,-4.4179 -3.47982,-13.80965 -9.39929,-28.01241 -16.77728,-40.25425 -1.40059,-2.32391 -2.49255,-4.27677 -2.42658,-4.33969 0.066,-0.0629 2.28703,-1.08692 4.93571,-2.27557 2.64867,-1.18865 4.87224,-2.33061 4.94127,-2.5377 0.18889,-0.56667 -3.19983,-6.72338 -5.98779,-10.87877 -8.09004,-12.05801 -20.05703,-23.85909 -32.17791,-31.73183 -2.74178,-1.78083 -9.41858,-5.61829 -9.77529,-5.61829 -0.0806,0 -1.30513,2.20983 -2.72118,4.91072 -1.41605,2.70089 -2.61182,4.95406 -2.65727,5.00703 -0.0454,0.053 -1.83392,-0.97877 -3.9744,-2.29277 -11.60913,-7.12669 -26.6942,-13.41508 -39.78463,-16.58471 -2.65178,-0.64209 -4.95738,-1.28281 -5.12355,-1.42383 -0.16616,-0.14102 0.54465,-2.52748 1.5796,-5.30325 1.16744,-3.13113 1.75494,-5.17362 1.54774,-5.38082 -0.60879,-0.6088 -9.52989,-2.88263 -14.7895,-3.76958 -2.84821,-0.4803 -6.94643,-0.99467 -9.10714,-1.14303 l -3.92857,-0.26976 -0.10275,-3.5255 -0.10274,-3.52551 3.13846,0.23428 c 18.70122,1.39597 32.77947,4.30528 48.44376,10.01107 31.11936,11.33535 58.84292,32.5375 78.32209,59.89838 14.74859,20.71619 24.69594,45.05841 28.65492,70.12157 0.95012,6.01496 1.82483,14.48405 1.82483,17.66841 v 2.51016 h -3.3509 -3.3509 z"
       style="fill:#a02c2c;fill-opacity:1;stroke:#000000;stroke-width:0.377953;stroke-miterlimit:4;stroke-dasharray:none;stroke-opacity:1" />
    <path
       transform="scale(0.26458333)"
       inkscape:connector-curvature="0"
       id="path905"
       d="m 377.59667,710.4999 c -16.03329,-1.38465 -31.05076,-4.56862 -44.40912,-9.41553 -44.08787,-15.99675 -79.27002,-49.4728 -97.16776,-92.45578 -5.18121,-12.44313 -8.85891,-25.60974 -10.93189,-39.13749 -0.72807,-4.75119 -1.77694,-14.92077 -1.77694,-17.22875 v -1.37121 h 3.02891 c 3.55781,0 3.1198,-0.75038 3.94525,6.75875 0.76602,6.96842 2.68181,16.42888 4.00131,19.7591 0.67824,1.71176 1.14359,1.71775 6.68833,0.0862 2.3422,-0.68921 4.37741,-1.13117 4.52267,-0.98214 0.14527,0.14903 1.01287,3.00311 1.928,6.34239 3.6174,13.19979 9.40881,26.75852 16.214,37.95989 1.19434,1.96589 2.17153,3.67682 2.17153,3.80206 0,0.12525 -0.72771,0.53966 -1.61714,0.92091 -6.01903,2.58006 -8.02572,3.68643 -8.02572,4.42491 0,0.41479 0.89446,2.34187 1.98769,4.28241 6.63053,11.76956 16.45276,23.10083 28.06561,32.37749 5.97992,4.77693 15.97293,11.05376 17.59809,11.05376 1.11139,0 1.6296,-0.68086 3.74934,-4.92614 1.00956,-2.02188 2.05085,-3.75876 2.31399,-3.85974 0.26314,-0.10097 1.90551,0.67923 3.64972,1.73379 12.34894,7.46625 27.94212,13.78292 42.52481,17.22644 2.5613,0.60482 2.56688,0.60877 2.19822,1.55529 -1.38702,3.56111 -3.1589,8.79175 -3.1589,9.32519 0,1.45267 14.57306,4.71555 24.91072,5.57746 l 2.94643,0.24566 v 3.16817 3.16817 l -0.98215,-0.0491 c -0.54017,-0.027 -2.50892,-0.18097 -4.375,-0.34212 z"
       style="fill:#ffffff;fill-opacity:1;stroke:#000000;stroke-width:0.134983;stroke-miterlimit:4;stroke-dasharray:none;stroke-opacity:1" />
    <path
       transform="scale(0.26458333)"
       inkscape:connector-curvature="0"
       id="path907"
       d="m 223.31118,536.51614 c 1.2e-4,-1.03125 0.32986,-4.76394 0.73274,-8.29486 3.62443,-31.76456 14.29433,-58.98453 32.6924,-83.40157 3.91493,-5.19569 10.34354,-12.85714 10.78825,-12.85714 0.15017,0 1.21262,0.94949 2.361,2.10998 l 2.08797,2.10999 -2.49417,2.9793 c -3.39092,4.05048 -6.45118,8.24498 -8.891,12.18632 -2.19758,3.55002 -4.76424,8.14142 -4.77239,8.53713 -0.003,0.13428 2.16462,1.39048 4.81641,2.79156 2.65178,1.40108 4.82143,2.63797 4.82143,2.74865 0,0.11068 -1.26648,2.39019 -2.81439,5.06558 -3.47909,6.01321 -6.23554,11.49627 -8.57243,17.05203 -3.23778,7.69759 -4.30464,10.94337 -8.10304,24.65251 l -0.50986,1.84021 -4.701,-1.75092 c -2.58555,-0.963 -4.91184,-1.75091 -5.16954,-1.75091 -0.74503,0 -1.45125,1.73108 -2.79075,6.84075 -1.35478,5.16793 -2.51538,11.91819 -2.87658,16.73067 -0.34291,4.56889 -0.10547,4.28572 -3.59362,4.28572 h -3.01165 z"
       style="fill:#ffffff;fill-opacity:1;stroke:#000000;stroke-width:0.134983;stroke-miterlimit:4;stroke-dasharray:none;stroke-opacity:1" />
    <path
       transform="scale(0.26458333)"
       inkscape:connector-curvature="0"
       id="path909"
       d="m 278.4734,425.1425 -2.12673,-2.16719 1.96429,-1.79324 c 3.19652,-2.91818 10.87378,-8.99372 15.60108,-12.34618 6.5363,-4.63536 13.31968,-8.6236 21.72035,-12.77033 16.46184,-8.12587 31.14222,-12.75667 49.12098,-15.4948 4.69688,-0.71533 15.13757,-1.82248 17.18638,-1.82248 h 1.01407 v 3.17205 3.17204 l -3.125,0.24248 c -8.51172,0.66045 -22.78561,3.62128 -24.41135,5.06364 -0.52057,0.46186 -0.43273,0.96276 0.9761,5.56566 0.85149,2.78197 1.5107,5.09434 1.46492,5.13861 -0.0458,0.0443 -2.51721,0.73783 -5.49206,1.54127 -14.02471,3.78773 -25.75859,8.68405 -38.13023,15.91102 -2.53576,1.48127 -4.70541,2.69247 -4.82143,2.69153 -0.11602,-10e-4 -1.2045,-2.20711 -2.41882,-4.90262 -1.21433,-2.69551 -2.34165,-4.94552 -2.50514,-5.00001 -0.44697,-0.149 -7.52436,3.86654 -11.52979,6.54171 -1.94038,1.29594 -5.24358,3.74788 -7.34044,5.44873 -2.09686,1.70086 -4.08428,3.2911 -4.41647,3.53388 -0.5202,0.38019 -0.89902,0.14078 -2.73071,-1.72577 z"
       style="fill:#ffffff;fill-opacity:1;stroke:#000000;stroke-width:0.134983;stroke-miterlimit:4;stroke-dasharray:none;stroke-opacity:1" />
    <path
       transform="scale(0.26458333)"
       inkscape:connector-curvature="0"
       id="path911"
       d="m 548.69072,534.37328 c -0.85569,-8.05016 -2.98098,-18.54288 -4.55022,-22.46482 -0.68307,-1.70716 -0.45713,-1.71363 -6.90097,0.19754 -2.93075,0.86923 -4.17282,1.09986 -4.33646,0.80521 -0.12612,-0.22711 -0.74126,-2.3415 -1.36697,-4.69864 -3.50693,-13.2111 -8.87289,-26.14517 -15.87304,-38.2603 -1.49009,-2.57887 -2.70911,-4.82887 -2.70894,-5 1.7e-4,-0.17112 1.92835,-1.18198 4.28486,-2.24635 2.3565,-1.06436 4.53383,-2.21066 4.8385,-2.54732 0.506,-0.55913 0.41105,-0.88625 -1.09685,-3.77907 -6.38622,-12.25161 -18.84959,-26.30475 -31.9208,-35.99248 -3.25891,-2.41535 -12.77286,-8.34728 -14.37201,-8.96094 -0.6565,-0.25192 -0.94486,0.17635 -4.00314,5.94559 l -2.01544,3.80199 -4.1677,-2.50629 c -11.51722,-6.92601 -26.37153,-13.08205 -39.49415,-16.36749 -3.61128,-0.90414 -4.55357,-1.2663 -4.55357,-1.75013 0,-0.33555 0.64285,-2.41222 1.42857,-4.61482 0.78571,-2.20261 1.42857,-4.37346 1.42857,-4.8241 0,-1.07057 -0.62553,-1.33311 -6.84459,-2.8727 -6.50014,-1.60918 -10.35039,-2.27029 -16.28041,-2.79543 l -4.73214,-0.41905 v -3.18681 -3.18682 l 3.125,0.24134 c 23.80061,1.83805 43.39172,6.91567 62.76785,16.26816 45.83204,22.12227 79.18864,64.29326 90.12941,113.94587 1.88599,8.5592 3.62059,21.47278 3.62059,26.95413 v 2.33159 h -2.98944 -2.98944 z"
       style="fill:#ffffff;fill-opacity:1;stroke:#000000;stroke-width:0.134983;stroke-miterlimit:4;stroke-dasharray:none;stroke-opacity:1" />
    <path
       transform="scale(0.26458333)"
       inkscape:connector-curvature="0"
       id="path913"
       d="m 395.45382,707.72304 v -3.18798 l 2.58928,-0.24358 c 6.19177,-0.58246 13.24849,-1.7507 18.2613,-3.02315 6.79204,-1.72409 7.46372,-1.98306 7.23137,-2.78819 -0.0992,-0.34359 -0.77585,-2.67756 -1.50377,-5.18659 -0.72791,-2.50903 -1.23759,-4.64777 -1.13262,-4.75274 0.10497,-0.10497 2.73963,-0.89577 5.85479,-1.75732 13.5048,-3.73499 24.44192,-8.26124 36.08339,-14.93287 2.97551,-1.70524 5.65735,-3.19535 5.95964,-3.31135 0.56071,-0.21516 1.23196,1.02717 3.87583,7.1733 0.59148,1.375 1.12172,2.55098 1.17831,2.61329 0.16462,0.18129 3.51615,-1.58964 7.6235,-4.02822 15.40989,-9.14901 31.73861,-26.30207 39.88249,-41.8959 1.59918,-3.06209 1.93219,-2.56098 -3.76066,-5.659 -2.0625,-1.1224 -3.93711,-2.18321 -4.16581,-2.35735 -0.29785,-0.22679 0.16596,-1.29931 1.63486,-3.78043 7.61054,-12.85496 13.16319,-26.19585 16.66229,-40.03313 0.66531,-2.63098 1.27005,-4.84399 1.34387,-4.9178 0.0738,-0.0738 2.3524,0.68203 5.06354,1.67965 4.04416,1.48814 5.01034,1.72991 5.38044,1.34637 0.6007,-0.62254 2.47033,-6.76859 3.35786,-11.03834 0.7414,-3.56676 2.15152,-13.85194 2.15152,-15.6928 v -1.05777 h 3.03572 3.03571 l -0.004,2.23214 c -0.0147,8.8859 -2.44918,23.8019 -5.93111,36.33929 -13.60408,48.98431 -49.11945,89.06172 -96.35378,108.73069 -14.99674,6.24484 -32.84085,10.63851 -48.60428,11.96762 -2.35715,0.19874 -5.29018,0.44883 -6.51786,0.55575 l -2.23214,0.1944 z"
       style="fill:#ffffff;fill-opacity:1;stroke:#000000;stroke-width:0.134983;stroke-miterlimit:4;stroke-dasharray:none;stroke-opacity:1" />
  </g>
</svg>
