<?xml version="1.0" encoding="UTF-8" standalone="no"?>
<!DOCTYPE svg PUBLIC "-//W3C//DTD SVG 1.1//EN" "http://www.w3.org/Graphics/SVG/1.1/DTD/svg11.dtd">
<svg width="100%" height="100%" viewBox="0 0 1040 1040" version="1.1" xmlns="http://www.w3.org/2000/svg" xmlns:xlink="http://www.w3.org/1999/xlink" xml:space="preserve" xmlns:serif="http://www.serif.com/" style="fill-rule:evenodd;clip-rule:evenodd;stroke-linecap:round;stroke-miterlimit:1.5;">
    <g transform="matrix(1,0,0,1,-708.661,-212.598)">
        <g transform="matrix(1.1,0,0,1.1,448.819,-47.2441)">
            <rect x="236.22" y="236.22" width="944.882" height="944.882" style="fill:white;"/>
        </g>
        <g transform="matrix(1,0,0,1,38.0549,-183.071)">
            <circle cx="1181.1" cy="590.551" r="106.299" style="stroke:black;stroke-width:1px;"/>
        </g>
        <g transform="matrix(1,0,0,1,38.0549,-183.071)">
            <path d="M1085.43,543.307L1074.8,590.551L1085.43,543.307Z" style="stroke:black;stroke-width:1px;"/>
        </g>
        <g transform="matrix(-1,0,0,1,2400.26,-183.071)">
            <path d="M1085.43,543.307L1074.8,590.551L1085.43,543.307Z" style="stroke:black;stroke-width:1px;"/>
        </g>
        <g transform="matrix(1,0,0,-1,38.0549,1635.83)">
            <path d="M1181.1,803.15L1322.84,1086.61L1039.37,1086.61L1181.1,803.15Z" style="stroke:black;stroke-width:1px;"/>
        </g>
        <g transform="matrix(0.5,0.866025,-0.866025,0.5,1773.78,-916.155)">
            <rect x="1086.61" y="1086.61" width="141.732" height="31.147" style="stroke:black;stroke-width:1px;"/>
        </g>
        <g transform="matrix(-0.299943,0.519517,0.866025,0.5,435.337,-539.634)">
            <rect x="1086.61" y="1086.61" width="141.732" height="31.147" style="stroke:black;stroke-width:1.21px;"/>
        </g>
        <g transform="matrix(0.387644,-0.387644,0.312187,0.312187,-476.154,2446.98)">
            <g transform="matrix(1.08333,0,0,1,-379.5,0)">
                <rect x="4558" y="300" width="450" height="75" style="stroke:white;stroke-width:7.96px;"/>
            </g>
            <g transform="matrix(1,0,0,1.52801,0.333333,-158.403)">
                <path d="M4562.69,300L4562.69,309.375" style="fill:none;stroke:white;stroke-width:3.39px;stroke-linecap:butt;"/>
            </g>
            <g transform="matrix(1,0,0,1.52801,47.2083,-158.403)">
                <path d="M4562.69,300L4562.69,309.375" style="fill:none;stroke:white;stroke-width:3.39px;stroke-linecap:butt;"/>
            </g>
            <g transform="matrix(1,0,0,1.52801,94.0833,-158.403)">
                <path d="M4562.69,300L4562.69,309.375" style="fill:none;stroke:white;stroke-width:3.39px;stroke-linecap:butt;"/>
            </g>
            <g transform="matrix(1,0,0,1.52801,140.958,-158.403)">
                <path d="M4562.69,300L4562.69,309.375" style="fill:none;stroke:white;stroke-width:3.39px;stroke-linecap:butt;"/>
            </g>
            <g transform="matrix(1,0,0,1.52801,187.833,-158.403)">
                <path d="M4562.69,300L4562.69,309.375" style="fill:none;stroke:white;stroke-width:3.39px;stroke-linecap:butt;"/>
            </g>
            <g transform="matrix(1,0,0,1.52801,234.708,-158.403)">
                <path d="M4562.69,300L4562.69,309.375" style="fill:none;stroke:white;stroke-width:3.39px;stroke-linecap:butt;"/>
            </g>
            <g transform="matrix(1,0,0,1.52801,281.583,-158.403)">
                <path d="M4562.69,300L4562.69,309.375" style="fill:none;stroke:white;stroke-width:3.39px;stroke-linecap:butt;"/>
            </g>
            <g transform="matrix(1,0,0,1.52801,328.458,-158.403)">
                <path d="M4562.69,300L4562.69,309.375" style="fill:none;stroke:white;stroke-width:3.39px;stroke-linecap:butt;"/>
            </g>
            <g transform="matrix(1,0,0,1.52801,375.333,-158.403)">
                <path d="M4562.69,300L4562.69,309.375" style="fill:none;stroke:white;stroke-width:3.39px;stroke-linecap:butt;"/>
            </g>
            <g transform="matrix(1,0,0,1.52801,422.208,-158.403)">
                <path d="M4562.69,300L4562.69,309.375" style="fill:none;stroke:white;stroke-width:3.39px;stroke-linecap:butt;"/>
            </g>
            <g transform="matrix(1,0,0,2.29201,19.0833,-387.604)">
                <path d="M4562.69,300L4562.69,309.375" style="fill:none;stroke:white;stroke-width:2.56px;stroke-linecap:butt;"/>
            </g>
            <g transform="matrix(1,0,0,2.29201,65.9583,-387.604)">
                <path d="M4562.69,300L4562.69,309.375" style="fill:none;stroke:white;stroke-width:2.56px;stroke-linecap:butt;"/>
            </g>
            <g transform="matrix(1,0,0,2.29201,112.833,-387.604)">
                <path d="M4562.69,300L4562.69,309.375" style="fill:none;stroke:white;stroke-width:2.56px;stroke-linecap:butt;"/>
            </g>
            <g transform="matrix(1,0,0,2.29201,159.708,-387.604)">
                <path d="M4562.69,300L4562.69,309.375" style="fill:none;stroke:white;stroke-width:2.56px;stroke-linecap:butt;"/>
            </g>
            <g transform="matrix(1,0,0,2.29201,206.583,-387.604)">
                <path d="M4562.69,300L4562.69,309.375" style="fill:none;stroke:white;stroke-width:2.56px;stroke-linecap:butt;"/>
            </g>
            <g transform="matrix(1,0,0,2.29201,253.458,-387.604)">
                <path d="M4562.69,300L4562.69,309.375" style="fill:none;stroke:white;stroke-width:2.56px;stroke-linecap:butt;"/>
            </g>
            <g transform="matrix(1,0,0,2.29201,300.333,-387.604)">
                <path d="M4562.69,300L4562.69,309.375" style="fill:none;stroke:white;stroke-width:2.56px;stroke-linecap:butt;"/>
            </g>
            <g transform="matrix(1,0,0,2.29201,347.208,-387.604)">
                <path d="M4562.69,300L4562.69,309.375" style="fill:none;stroke:white;stroke-width:2.56px;stroke-linecap:butt;"/>
            </g>
            <g transform="matrix(1,0,0,2.29201,394.083,-387.604)">
                <path d="M4562.69,300L4562.69,309.375" style="fill:none;stroke:white;stroke-width:2.56px;stroke-linecap:butt;"/>
            </g>
            <g transform="matrix(1,0,0,2.29201,440.958,-387.604)">
                <path d="M4562.69,300L4562.69,309.375" style="fill:none;stroke:white;stroke-width:2.56px;stroke-linecap:butt;"/>
            </g>
            <g transform="matrix(1,0,0,3.05602,42.5208,-616.806)">
                <path d="M4562.69,300L4562.69,309.375" style="fill:none;stroke:white;stroke-width:2.02px;stroke-linecap:butt;"/>
            </g>
            <g transform="matrix(1,0,0,3.05602,89.3958,-616.806)">
                <path d="M4562.69,300L4562.69,309.375" style="fill:none;stroke:white;stroke-width:2.02px;stroke-linecap:butt;"/>
            </g>
            <g transform="matrix(1,0,0,3.05602,136.271,-616.806)">
                <path d="M4562.69,300L4562.69,309.375" style="fill:none;stroke:white;stroke-width:2.02px;stroke-linecap:butt;"/>
            </g>
            <g transform="matrix(1,0,0,3.05602,183.146,-616.806)">
                <path d="M4562.69,300L4562.69,309.375" style="fill:none;stroke:white;stroke-width:2.02px;stroke-linecap:butt;"/>
            </g>
            <g transform="matrix(1,0,0,3.05602,230.021,-616.806)">
                <path d="M4562.69,300L4562.69,309.375" style="fill:none;stroke:white;stroke-width:2.02px;stroke-linecap:butt;"/>
            </g>
            <g transform="matrix(1,0,0,3.05602,276.896,-616.806)">
                <path d="M4562.69,300L4562.69,309.375" style="fill:none;stroke:white;stroke-width:2.02px;stroke-linecap:butt;"/>
            </g>
            <g transform="matrix(1,0,0,3.05602,323.771,-616.806)">
                <path d="M4562.69,300L4562.69,309.375" style="fill:none;stroke:white;stroke-width:2.02px;stroke-linecap:butt;"/>
            </g>
            <g transform="matrix(1,0,0,3.05602,370.646,-616.806)">
                <path d="M4562.69,300L4562.69,309.375" style="fill:none;stroke:white;stroke-width:2.02px;stroke-linecap:butt;"/>
            </g>
            <g transform="matrix(1,0,0,3.05602,417.521,-616.806)">
                <path d="M4562.69,300L4562.69,309.375" style="fill:none;stroke:white;stroke-width:2.02px;stroke-linecap:butt;"/>
            </g>
            <g transform="matrix(1,0,0,3.05602,464.396,-616.806)">
                <path d="M4562.69,300L4562.69,309.375" style="fill:none;stroke:white;stroke-width:2.02px;stroke-linecap:butt;"/>
            </g>
            <g transform="matrix(1,0,0,1.52801,9.70833,-158.403)">
                <path d="M4562.69,300L4562.69,309.375" style="fill:none;stroke:white;stroke-width:3.39px;stroke-linecap:butt;"/>
            </g>
            <g transform="matrix(1,0,0,1.52801,56.5833,-158.403)">
                <path d="M4562.69,300L4562.69,309.375" style="fill:none;stroke:white;stroke-width:3.39px;stroke-linecap:butt;"/>
            </g>
            <g transform="matrix(1,0,0,1.52801,103.458,-158.403)">
                <path d="M4562.69,300L4562.69,309.375" style="fill:none;stroke:white;stroke-width:3.39px;stroke-linecap:butt;"/>
            </g>
            <g transform="matrix(1,0,0,1.52801,150.333,-158.403)">
                <path d="M4562.69,300L4562.69,309.375" style="fill:none;stroke:white;stroke-width:3.39px;stroke-linecap:butt;"/>
            </g>
            <g transform="matrix(1,0,0,1.52801,197.208,-158.403)">
                <path d="M4562.69,300L4562.69,309.375" style="fill:none;stroke:white;stroke-width:3.39px;stroke-linecap:butt;"/>
            </g>
            <g transform="matrix(1,0,0,1.52801,244.083,-158.403)">
                <path d="M4562.69,300L4562.69,309.375" style="fill:none;stroke:white;stroke-width:3.39px;stroke-linecap:butt;"/>
            </g>
            <g transform="matrix(1,0,0,1.52801,290.958,-158.403)">
                <path d="M4562.69,300L4562.69,309.375" style="fill:none;stroke:white;stroke-width:3.39px;stroke-linecap:butt;"/>
            </g>
            <g transform="matrix(1,0,0,1.52801,337.833,-158.403)">
                <path d="M4562.69,300L4562.69,309.375" style="fill:none;stroke:white;stroke-width:3.39px;stroke-linecap:butt;"/>
            </g>
            <g transform="matrix(1,0,0,1.52801,384.708,-158.403)">
                <path d="M4562.69,300L4562.69,309.375" style="fill:none;stroke:white;stroke-width:3.39px;stroke-linecap:butt;"/>
            </g>
            <g transform="matrix(1,0,0,1.52801,431.583,-158.403)">
                <path d="M4562.69,300L4562.69,309.375" style="fill:none;stroke:white;stroke-width:3.39px;stroke-linecap:butt;"/>
            </g>
            <g transform="matrix(1,0,0,1.52801,14.3958,-158.403)">
                <path d="M4562.69,300L4562.69,309.375" style="fill:none;stroke:white;stroke-width:3.39px;stroke-linecap:butt;"/>
            </g>
            <g transform="matrix(1,0,0,1.52801,61.2708,-158.403)">
                <path d="M4562.69,300L4562.69,309.375" style="fill:none;stroke:white;stroke-width:3.39px;stroke-linecap:butt;"/>
            </g>
            <g transform="matrix(1,0,0,1.52801,108.146,-158.403)">
                <path d="M4562.69,300L4562.69,309.375" style="fill:none;stroke:white;stroke-width:3.39px;stroke-linecap:butt;"/>
            </g>
            <g transform="matrix(1,0,0,1.52801,155.021,-158.403)">
                <path d="M4562.69,300L4562.69,309.375" style="fill:none;stroke:white;stroke-width:3.39px;stroke-linecap:butt;"/>
            </g>
            <g transform="matrix(1,0,0,1.52801,201.896,-158.403)">
                <path d="M4562.69,300L4562.69,309.375" style="fill:none;stroke:white;stroke-width:3.39px;stroke-linecap:butt;"/>
            </g>
            <g transform="matrix(1,0,0,1.52801,248.771,-158.403)">
                <path d="M4562.69,300L4562.69,309.375" style="fill:none;stroke:white;stroke-width:3.39px;stroke-linecap:butt;"/>
            </g>
            <g transform="matrix(1,0,0,1.52801,295.646,-158.403)">
                <path d="M4562.69,300L4562.69,309.375" style="fill:none;stroke:white;stroke-width:3.39px;stroke-linecap:butt;"/>
            </g>
            <g transform="matrix(1,0,0,1.52801,342.521,-158.403)">
                <path d="M4562.69,300L4562.69,309.375" style="fill:none;stroke:white;stroke-width:3.39px;stroke-linecap:butt;"/>
            </g>
            <g transform="matrix(1,0,0,1.52801,389.396,-158.403)">
                <path d="M4562.69,300L4562.69,309.375" style="fill:none;stroke:white;stroke-width:3.39px;stroke-linecap:butt;"/>
            </g>
            <g transform="matrix(1,0,0,1.52801,436.271,-158.403)">
                <path d="M4562.69,300L4562.69,309.375" style="fill:none;stroke:white;stroke-width:3.39px;stroke-linecap:butt;"/>
            </g>
            <g transform="matrix(1,0,0,1.52801,23.7708,-158.403)">
                <path d="M4562.69,300L4562.69,309.375" style="fill:none;stroke:white;stroke-width:3.39px;stroke-linecap:butt;"/>
            </g>
            <g transform="matrix(1,0,0,1.52801,70.6458,-158.403)">
                <path d="M4562.69,300L4562.69,309.375" style="fill:none;stroke:white;stroke-width:3.39px;stroke-linecap:butt;"/>
            </g>
            <g transform="matrix(1,0,0,1.52801,117.521,-158.403)">
                <path d="M4562.69,300L4562.69,309.375" style="fill:none;stroke:white;stroke-width:3.39px;stroke-linecap:butt;"/>
            </g>
            <g transform="matrix(1,0,0,1.52801,164.396,-158.403)">
                <path d="M4562.69,300L4562.69,309.375" style="fill:none;stroke:white;stroke-width:3.39px;stroke-linecap:butt;"/>
            </g>
            <g transform="matrix(1,0,0,1.52801,211.271,-158.403)">
                <path d="M4562.69,300L4562.69,309.375" style="fill:none;stroke:white;stroke-width:3.39px;stroke-linecap:butt;"/>
            </g>
            <g transform="matrix(1,0,0,1.52801,258.146,-158.403)">
                <path d="M4562.69,300L4562.69,309.375" style="fill:none;stroke:white;stroke-width:3.39px;stroke-linecap:butt;"/>
            </g>
            <g transform="matrix(1,0,0,1.52801,305.021,-158.403)">
                <path d="M4562.69,300L4562.69,309.375" style="fill:none;stroke:white;stroke-width:3.39px;stroke-linecap:butt;"/>
            </g>
            <g transform="matrix(1,0,0,1.52801,351.896,-158.403)">
                <path d="M4562.69,300L4562.69,309.375" style="fill:none;stroke:white;stroke-width:3.39px;stroke-linecap:butt;"/>
            </g>
            <g transform="matrix(1,0,0,1.52801,398.771,-158.403)">
                <path d="M4562.69,300L4562.69,309.375" style="fill:none;stroke:white;stroke-width:3.39px;stroke-linecap:butt;"/>
            </g>
            <g transform="matrix(1,0,0,1.52801,445.646,-158.403)">
                <path d="M4562.69,300L4562.69,309.375" style="fill:none;stroke:white;stroke-width:3.39px;stroke-linecap:butt;"/>
            </g>
            <g transform="matrix(1,0,0,1.52801,33.1458,-158.403)">
                <path d="M4562.69,300L4562.69,309.375" style="fill:none;stroke:white;stroke-width:3.39px;stroke-linecap:butt;"/>
            </g>
            <g transform="matrix(1,0,0,1.52801,80.0208,-158.403)">
                <path d="M4562.69,300L4562.69,309.375" style="fill:none;stroke:white;stroke-width:3.39px;stroke-linecap:butt;"/>
            </g>
            <g transform="matrix(1,0,0,1.52801,126.896,-158.403)">
                <path d="M4562.69,300L4562.69,309.375" style="fill:none;stroke:white;stroke-width:3.39px;stroke-linecap:butt;"/>
            </g>
            <g transform="matrix(1,0,0,1.52801,173.771,-158.403)">
                <path d="M4562.69,300L4562.69,309.375" style="fill:none;stroke:white;stroke-width:3.39px;stroke-linecap:butt;"/>
            </g>
            <g transform="matrix(1,0,0,1.52801,220.646,-158.403)">
                <path d="M4562.69,300L4562.69,309.375" style="fill:none;stroke:white;stroke-width:3.39px;stroke-linecap:butt;"/>
            </g>
            <g transform="matrix(1,0,0,1.52801,267.521,-158.403)">
                <path d="M4562.69,300L4562.69,309.375" style="fill:none;stroke:white;stroke-width:3.39px;stroke-linecap:butt;"/>
            </g>
            <g transform="matrix(1,0,0,1.52801,314.396,-158.403)">
                <path d="M4562.69,300L4562.69,309.375" style="fill:none;stroke:white;stroke-width:3.39px;stroke-linecap:butt;"/>
            </g>
            <g transform="matrix(1,0,0,1.52801,361.271,-158.403)">
                <path d="M4562.69,300L4562.69,309.375" style="fill:none;stroke:white;stroke-width:3.39px;stroke-linecap:butt;"/>
            </g>
            <g transform="matrix(1,0,0,1.52801,408.146,-158.403)">
                <path d="M4562.69,300L4562.69,309.375" style="fill:none;stroke:white;stroke-width:3.39px;stroke-linecap:butt;"/>
            </g>
            <g transform="matrix(1,0,0,1.52801,455.021,-158.403)">
                <path d="M4562.69,300L4562.69,309.375" style="fill:none;stroke:white;stroke-width:3.39px;stroke-linecap:butt;"/>
            </g>
            <g transform="matrix(1,0,0,1.52801,473.771,-158.403)">
                <path d="M4562.69,300L4562.69,309.375" style="fill:none;stroke:white;stroke-width:3.39px;stroke-linecap:butt;"/>
            </g>
            <g transform="matrix(1,0,0,1.52801,37.8333,-158.403)">
                <path d="M4562.69,300L4562.69,309.375" style="fill:none;stroke:white;stroke-width:3.39px;stroke-linecap:butt;"/>
            </g>
            <g transform="matrix(1,0,0,1.52801,84.7083,-158.403)">
                <path d="M4562.69,300L4562.69,309.375" style="fill:none;stroke:white;stroke-width:3.39px;stroke-linecap:butt;"/>
            </g>
            <g transform="matrix(1,0,0,1.52801,131.583,-158.403)">
                <path d="M4562.69,300L4562.69,309.375" style="fill:none;stroke:white;stroke-width:3.39px;stroke-linecap:butt;"/>
            </g>
            <g transform="matrix(1,0,0,1.52801,178.458,-158.403)">
                <path d="M4562.69,300L4562.69,309.375" style="fill:none;stroke:white;stroke-width:3.39px;stroke-linecap:butt;"/>
            </g>
            <g transform="matrix(1,0,0,1.52801,225.333,-158.403)">
                <path d="M4562.69,300L4562.69,309.375" style="fill:none;stroke:white;stroke-width:3.39px;stroke-linecap:butt;"/>
            </g>
            <g transform="matrix(1,0,0,1.52801,272.208,-158.403)">
                <path d="M4562.69,300L4562.69,309.375" style="fill:none;stroke:white;stroke-width:3.39px;stroke-linecap:butt;"/>
            </g>
            <g transform="matrix(1,0,0,1.52801,319.083,-158.403)">
                <path d="M4562.69,300L4562.69,309.375" style="fill:none;stroke:white;stroke-width:3.39px;stroke-linecap:butt;"/>
            </g>
            <g transform="matrix(1,0,0,1.52801,365.958,-158.403)">
                <path d="M4562.69,300L4562.69,309.375" style="fill:none;stroke:white;stroke-width:3.39px;stroke-linecap:butt;"/>
            </g>
            <g transform="matrix(1,0,0,1.52801,412.833,-158.403)">
                <path d="M4562.69,300L4562.69,309.375" style="fill:none;stroke:white;stroke-width:3.39px;stroke-linecap:butt;"/>
            </g>
            <g transform="matrix(1,0,0,1.52801,459.708,-158.403)">
                <path d="M4562.69,300L4562.69,309.375" style="fill:none;stroke:white;stroke-width:3.39px;stroke-linecap:butt;"/>
            </g>
            <g transform="matrix(1,0,0,1.52801,478.458,-158.403)">
                <path d="M4562.69,300L4562.69,309.375" style="fill:none;stroke:white;stroke-width:3.39px;stroke-linecap:butt;"/>
            </g>
            <g transform="matrix(1,0,0,1.52801,28.4583,-158.403)">
                <path d="M4562.69,300L4562.69,309.375" style="fill:none;stroke:white;stroke-width:3.39px;stroke-linecap:butt;"/>
            </g>
            <g transform="matrix(1,0,0,1.52801,75.3333,-158.403)">
                <path d="M4562.69,300L4562.69,309.375" style="fill:none;stroke:white;stroke-width:3.39px;stroke-linecap:butt;"/>
            </g>
            <g transform="matrix(1,0,0,1.52801,122.208,-158.403)">
                <path d="M4562.69,300L4562.69,309.375" style="fill:none;stroke:white;stroke-width:3.39px;stroke-linecap:butt;"/>
            </g>
            <g transform="matrix(1,0,0,1.52801,169.083,-158.403)">
                <path d="M4562.69,300L4562.69,309.375" style="fill:none;stroke:white;stroke-width:3.39px;stroke-linecap:butt;"/>
            </g>
            <g transform="matrix(1,0,0,1.52801,215.958,-158.403)">
                <path d="M4562.69,300L4562.69,309.375" style="fill:none;stroke:white;stroke-width:3.39px;stroke-linecap:butt;"/>
            </g>
            <g transform="matrix(1,0,0,1.52801,262.833,-158.403)">
                <path d="M4562.69,300L4562.69,309.375" style="fill:none;stroke:white;stroke-width:3.39px;stroke-linecap:butt;"/>
            </g>
            <g transform="matrix(1,0,0,1.52801,309.708,-158.403)">
                <path d="M4562.69,300L4562.69,309.375" style="fill:none;stroke:white;stroke-width:3.39px;stroke-linecap:butt;"/>
            </g>
            <g transform="matrix(1,0,0,1.52801,356.583,-158.403)">
                <path d="M4562.69,300L4562.69,309.375" style="fill:none;stroke:white;stroke-width:3.39px;stroke-linecap:butt;"/>
            </g>
            <g transform="matrix(1,0,0,1.52801,403.458,-158.403)">
                <path d="M4562.69,300L4562.69,309.375" style="fill:none;stroke:white;stroke-width:3.39px;stroke-linecap:butt;"/>
            </g>
            <g transform="matrix(1,0,0,1.52801,450.333,-158.403)">
                <path d="M4562.69,300L4562.69,309.375" style="fill:none;stroke:white;stroke-width:3.39px;stroke-linecap:butt;"/>
            </g>
            <g transform="matrix(1,0,0,1.52801,469.083,-158.403)">
                <path d="M4562.69,300L4562.69,309.375" style="fill:none;stroke:white;stroke-width:3.39px;stroke-linecap:butt;"/>
            </g>
            <g transform="matrix(1,0,0,1.52801,5.02083,-158.403)">
                <path d="M4562.69,300L4562.69,309.375" style="fill:none;stroke:white;stroke-width:3.39px;stroke-linecap:butt;"/>
            </g>
            <g transform="matrix(1,0,0,1.52801,51.8958,-158.403)">
                <path d="M4562.69,300L4562.69,309.375" style="fill:none;stroke:white;stroke-width:3.39px;stroke-linecap:butt;"/>
            </g>
            <g transform="matrix(1,0,0,1.52801,98.7708,-158.403)">
                <path d="M4562.69,300L4562.69,309.375" style="fill:none;stroke:white;stroke-width:3.39px;stroke-linecap:butt;"/>
            </g>
            <g transform="matrix(1,0,0,1.52801,145.646,-158.403)">
                <path d="M4562.69,300L4562.69,309.375" style="fill:none;stroke:white;stroke-width:3.39px;stroke-linecap:butt;"/>
            </g>
            <g transform="matrix(1,0,0,1.52801,192.521,-158.403)">
                <path d="M4562.69,300L4562.69,309.375" style="fill:none;stroke:white;stroke-width:3.39px;stroke-linecap:butt;"/>
            </g>
            <g transform="matrix(1,0,0,1.52801,239.396,-158.403)">
                <path d="M4562.69,300L4562.69,309.375" style="fill:none;stroke:white;stroke-width:3.39px;stroke-linecap:butt;"/>
            </g>
            <g transform="matrix(1,0,0,1.52801,286.271,-158.403)">
                <path d="M4562.69,300L4562.69,309.375" style="fill:none;stroke:white;stroke-width:3.39px;stroke-linecap:butt;"/>
            </g>
            <g transform="matrix(1,0,0,1.52801,333.146,-158.403)">
                <path d="M4562.69,300L4562.69,309.375" style="fill:none;stroke:white;stroke-width:3.39px;stroke-linecap:butt;"/>
            </g>
            <g transform="matrix(1,0,0,1.52801,380.021,-158.403)">
                <path d="M4562.69,300L4562.69,309.375" style="fill:none;stroke:white;stroke-width:3.39px;stroke-linecap:butt;"/>
            </g>
            <g transform="matrix(1,0,0,1.52801,426.896,-158.403)">
                <path d="M4562.69,300L4562.69,309.375" style="fill:none;stroke:white;stroke-width:3.39px;stroke-linecap:butt;"/>
            </g>
        </g>
        <g transform="matrix(0.509878,0,0,0.509878,314.859,184.463)">
            <g transform="matrix(1,0,0,1,18.75,0)">
                <path d="M1500,1008.96C1500,990.218 1484.78,975 1466.04,975L1083.96,975C1065.22,975 1050,990.218 1050,1008.96L1050,1167.45C1050,1186.19 1065.22,1201.41 1083.96,1201.41L1466.04,1201.41C1484.78,1201.41 1500,1186.19 1500,1167.45L1500,1008.96Z"/>
            </g>
            <g transform="matrix(0.7,0,0,5,375,-3857.81)">
                <path d="M1500,965.625L1125,965.625L1181.25,956.25L1443.75,956.25L1500,965.625Z"/>
            </g>
            <g transform="matrix(0.360798,0,0,1.93137,820.516,-909.054)">
                <path d="M1500,965.625L1125,965.625C1110.75,965.625 1152,956.25 1166.25,956.25L1458.75,956.25C1473,956.25 1514.25,965.625 1500,965.625Z" style="fill:white;"/>
            </g>
            <g transform="matrix(0.81782,1.4165,-1.4165,0.81782,1480.49,-1162.04)">
                <path d="M1125,752.096L1117.31,747.656L1117.31,727.861L1129.69,720.715L1129.69,740.625L1139.06,740.625L1139.06,720.626L1151.6,727.861L1151.6,747.656L1143.9,752.096L1143.9,821.082L1151.6,825.522L1151.6,845.317L1139.06,852.552L1139.06,832.553L1129.69,832.553L1129.69,852.464L1117.31,845.317L1117.31,825.522L1125,821.082L1125,752.096Z" style="fill:white;"/>
            </g>
        </g>
        <rect x="732.283" y="850.394" width="992.126" height="377.953" style="stroke:black;stroke-width:1px;"/>
        <g transform="matrix(1,0,0,1,0,59.0551)">
            <text x="1168.67px" y="933.81px" style="font-family:'ZenDots-Regular', 'Zen Dots';font-size:116.667px;fill:white;">In</text>
            <text x="759.405px" y="1050.48px" style="font-family:'ZenDots-Regular', 'Zen Dots';font-size:116.667px;fill:white;">De<tspan x="960.188px 1041.86px " y="1050.48px 1050.48px ">ve</tspan>lopment</text>
        </g>
    </g>
</svg>
