<?xml version="1.0" encoding="UTF-8" standalone="no"?>
<!DOCTYPE svg PUBLIC "-//W3C//DTD SVG 1.1//EN" "http://www.w3.org/Graphics/SVG/1.1/DTD/svg11.dtd">
<svg width="100%" height="100%" viewBox="0 0 1200 1080" version="1.1" xmlns="http://www.w3.org/2000/svg" xmlns:xlink="http://www.w3.org/1999/xlink" xml:space="preserve" xmlns:serif="http://www.serif.com/" style="fill-rule:evenodd;clip-rule:evenodd;stroke-linecap:round;stroke-linejoin:round;stroke-miterlimit:1.5;">
    <g transform="matrix(1,0,0,1,-226.583,-1035.66)">
        <g transform="matrix(5.78458,0.0152106,-0.0152112,5.78433,-1765.51,-3531.86)">
            <path d="M416.315,808.345C423.263,796.31 436.104,788.896 450,788.896C463.896,788.896 476.737,796.31 483.685,808.345C502.927,841.672 526.977,883.328 546.219,916.655C553.167,928.69 553.167,943.517 546.219,955.552C539.27,967.586 526.43,975 512.533,975L387.467,975C373.57,975 360.73,967.586 353.781,955.552C346.833,943.517 346.833,928.69 353.781,916.655C373.023,883.328 397.073,841.672 416.315,808.345Z" style="fill:rgb(243,237,208);"/>
            <path d="M416.315,808.345C423.263,796.31 436.104,788.896 450,788.896C463.896,788.896 476.737,796.31 483.685,808.345C502.927,841.672 526.977,883.328 546.219,916.655C553.167,928.69 553.167,943.517 546.219,955.552C539.27,967.586 526.43,975 512.533,975L387.467,975C373.57,975 360.73,967.586 353.781,955.552C346.833,943.517 346.833,928.69 353.781,916.655C373.023,883.328 397.073,841.672 416.315,808.345ZM418.81,809.785C425.243,798.642 437.133,791.778 450,791.778C462.867,791.778 474.757,798.642 481.19,809.785C500.432,843.113 524.482,884.768 543.723,918.096C550.157,929.239 550.157,942.968 543.723,954.111C537.29,965.254 525.4,972.119 512.533,972.119L387.467,972.119C374.6,972.119 362.71,965.254 356.277,954.111C349.843,942.968 349.843,929.239 356.277,918.096L418.81,809.785Z" style="fill:rgb(2,89,81);"/>
        </g>
        <g>
            <g transform="matrix(1,0,0,1,226.583,1035.66)">
                <path d="M248.822,860L596.731,629.612" style="fill:none;stroke:rgb(2,89,81);stroke-width:15px;"/>
            </g>
            <g transform="matrix(1,0,0,1,226.583,1035.66)">
                <path d="M596.731,629.612L596.731,254.626" style="fill:none;stroke:rgb(2,89,81);stroke-width:15px;"/>
            </g>
            <g transform="matrix(1,0,0,1,226.583,1035.66)">
                <path d="M940.391,860L596.731,629.612" style="fill:none;stroke:rgb(2,89,81);stroke-width:15px;"/>
            </g>
        </g>
        <g transform="matrix(1,0,0,0.999958,-25.8961,-709.133)">
            <g transform="matrix(1.98079,0,0,1.98079,-4053.93,-2308.72)">
                <circle cx="2475" cy="2175" r="75" style="fill:rgb(210,138,45);stroke:rgb(2,89,81);stroke-width:8.41px;"/>
            </g>
            <g transform="matrix(1.96067,0,0,1.96067,-4052.81,-1830.84)">
                <g transform="matrix(0.981048,0,0,0.981048,991.464,261.35)">
                    <path d="M1575,1691.18C1575,1689.11 1573.32,1687.43 1571.25,1687.43L1503.75,1687.43C1501.68,1687.43 1500,1689.11 1500,1691.18L1500,1758.68C1500,1760.75 1501.68,1762.43 1503.75,1762.43L1571.25,1762.43C1573.32,1762.43 1575,1760.75 1575,1758.68L1575,1691.18Z" style="fill:rgb(116,46,18);"/>
                </g>
                <g transform="matrix(0.981048,0,0,0.981048,991.464,261.35)">
                    <circle cx="1518.75" cy="1706.25" r="4.688" style="fill:rgb(210,138,45);"/>
                </g>
                <g transform="matrix(0.981048,0,0,0.981048,1028.25,261.35)">
                    <circle cx="1518.75" cy="1706.25" r="4.688" style="fill:rgb(210,138,45);"/>
                </g>
                <g transform="matrix(0.981048,0,0,0.981048,991.464,279.672)">
                    <circle cx="1518.75" cy="1706.25" r="4.688" style="fill:rgb(210,138,45);"/>
                </g>
                <g transform="matrix(0.981048,0,0,0.981048,1028.25,279.672)">
                    <circle cx="1518.75" cy="1706.25" r="4.688" style="fill:rgb(210,138,45);"/>
                </g>
                <g transform="matrix(0.981048,0,0,0.981048,991.464,298.139)">
                    <circle cx="1518.75" cy="1706.25" r="4.688" style="fill:rgb(210,138,45);"/>
                </g>
                <g transform="matrix(0.981048,0,0,0.981048,1028.25,298.139)">
                    <circle cx="1518.75" cy="1706.25" r="4.688" style="fill:rgb(210,138,45);"/>
                </g>
            </g>
        </g>
        <g transform="matrix(1,0,0,0.999958,15.6615,-110.107)">
            <g transform="matrix(1.9804,0,0,1.9804,-3750.18,-2307.84)">
                <circle cx="2475" cy="2175" r="75" style="fill:rgb(210,138,45);"/>
                <path d="M2475,2091.58C2428.96,2091.58 2391.58,2128.96 2391.58,2175C2391.58,2221.04 2428.96,2258.42 2475,2258.42C2521.04,2258.42 2558.42,2221.04 2558.42,2175C2558.42,2128.96 2521.04,2091.58 2475,2091.58ZM2475,2100C2516.39,2100 2550,2133.61 2550,2175C2550,2216.39 2516.39,2250 2475,2250C2433.61,2250 2400,2216.39 2400,2175C2400,2133.61 2433.61,2100 2475,2100Z" style="fill:rgb(2,89,81);"/>
            </g>
            <g transform="matrix(0.842227,0,0,1.49324,-5958.35,-1329.89)">
                <g transform="matrix(1,0,0,1,0.333333,0)">
                    <path d="M8291,2231.25C8291,2225 8366,2212.5 8366,2212.5C8366,2212.5 8416,2193.75 8441,2193.75C8466,2193.75 8516,2212.5 8516,2212.5C8516,2212.5 8597.25,2225 8591,2231.25C8584.75,2237.5 8478.5,2250 8478.5,2250C8478.5,2250 8466,2268.75 8441,2268.75C8416,2268.75 8403.5,2250 8403.5,2250C8403.5,2250 8291,2237.5 8291,2231.25Z" style="fill:rgb(116,46,18);"/>
                </g>
                <g transform="matrix(0.846924,0,0,0.869557,1292.44,290.642)">
                    <path d="M8516,2212.5C8516,2225.39 8366,2225.39 8366,2212.5C8366,2209.49 8416,2193.75 8441,2193.75C8466,2193.75 8516,2209.38 8516,2212.5Z" style="fill:rgb(210,138,45);"/>
                </g>
            </g>
        </g>
        <g transform="matrix(1,0,0,0.999958,-72.7786,-110.458)">
            <g transform="matrix(1.97805,0,0,1.97805,-4347.49,-2302.56)">
                <circle cx="2475" cy="2175" r="75" style="fill:rgb(210,138,45);"/>
                <path d="M2475,2091.57C2428.96,2091.57 2391.57,2128.96 2391.57,2175C2391.57,2221.04 2428.96,2258.43 2475,2258.43C2521.04,2258.43 2558.43,2221.04 2558.43,2175C2558.43,2128.96 2521.04,2091.57 2475,2091.57ZM2475,2100C2516.39,2100 2550,2133.61 2550,2175C2550,2216.39 2516.39,2250 2475,2250C2433.61,2250 2400,2216.39 2400,2175C2400,2133.61 2433.61,2100 2475,2100Z" style="fill:rgb(2,89,81);"/>
            </g>
            <g transform="matrix(0.261954,0,0,0.261954,-1606.75,1669.47)">
                <path d="M8066,1275C8066,1275 8053.5,1233.72 8028.5,1200C8020.18,1188.77 8004.92,1175.15 7991,1176.35C7936.31,1181.04 7700.38,1223.22 7700.38,1223.22C7700.38,1223.22 7703.62,1207.83 7709.75,1204.47C7758.19,1177.91 7901.11,1133.5 7991,1063.85C8097.56,1025.45 8155.22,928.522 8216,876.381C8179.17,953.177 8129.42,1065.68 8066,1138.85C8066,1138.85 8091,1175 8141,1200C8170.21,1214.61 8201.06,1206.71 8234.75,1201.71L8236.11,1201.06C8351.46,1145.8 8330.74,1017.83 8281.84,811.153C8328.6,865.599 8369.56,1009.05 8380.35,1078.7C8409.64,1032.36 8383.49,885.544 8366,825C8425.37,896.384 8516.86,1178.92 8414.46,1283.6C8451.29,1315.07 8566.01,1365.84 8666,1364.35C8812.62,1362.15 8693.24,1083.97 8669.8,1032.31C8667.39,1027.02 8666,1024.11 8666,1024.11C8666,1024.11 8860.46,1388.45 8666,1399.11C8591.03,1403.22 8434.61,1429.3 8428.36,1463.11C8422.11,1496.91 8459.61,1519.44 8465.86,1546.06C8468.72,1558.23 8465.86,1583.56 8465.86,1583.56C8465.86,1583.56 8408.11,1589.81 8401.86,1583.56C8395.61,1577.31 8429.85,1561.3 8428.36,1546.06C8426.53,1527.31 8417.46,1522.44 8390.86,1510.34C8361.64,1497.05 8241.83,1454.17 8241.83,1454.17L8103.5,1532.7L7991,1570.2C7936.33,1586.92 7855,1575.9 7991,1532.7C8037.13,1518.04 8058.39,1439.57 8066,1364.35C8048.11,1383.47 8023.72,1394.24 8003.09,1413.36C7960.65,1429.17 7847.84,1429.23 7905.18,1397.79C7912.24,1393.92 7932.94,1387.15 7947.37,1387.5C8022.69,1389.34 8038.61,1315.49 8066,1275Z" style="fill:rgb(116,46,18);"/>
            </g>
        </g>
        <g transform="matrix(0.286454,0,0,0.286454,-637.696,1471.92)">
            <g transform="matrix(1.75,0,0,1.75,375.333,-375)">
                <circle cx="2700" cy="600" r="300" style="fill:rgb(243,237,208);"/>
                <path d="M2700,280.052C2523.42,280.052 2380.05,423.416 2380.05,600C2380.05,776.584 2523.42,919.948 2700,919.948C2876.58,919.948 3019.95,776.584 3019.95,600C3019.95,423.416 2876.58,280.052 2700,280.052ZM2700,300C2865.58,300 3000,434.425 3000,600C3000,765.575 2865.58,900 2700,900C2534.43,900 2400,765.575 2400,600C2400,434.425 2534.43,300 2700,300Z" style="fill:rgb(2,89,81);"/>
            </g>
            <g transform="matrix(1,0,0,1,5.19377,0)">
                <g transform="matrix(0.744296,0,0,0.986665,1632.38,77.0002)">
                    <path d="M4568.39,150C4284.36,150 4053.78,354.363 4053.78,606.082C4053.78,857.8 4284.36,1062.16 4568.39,1062.16C4355.37,1024.16 4182.43,832.877 4182.43,606.082C4182.43,379.286 4355.37,188.007 4568.39,150Z" style="fill:rgb(116,46,18);stroke:rgb(210,138,45);stroke-width:19.97px;"/>
                </g>
                <g transform="matrix(-0.757569,0,0,0.986665,8611.7,77.0002)">
                    <path d="M4568.39,150C4284.36,150 4053.78,354.363 4053.78,606.082C4053.78,857.8 4284.36,1062.16 4568.39,1062.16C4355.37,1024.16 4182.43,832.877 4182.43,606.082C4182.43,379.286 4355.37,188.007 4568.39,150Z" style="fill:rgb(116,46,18);stroke:rgb(210,138,45);stroke-width:19.84px;"/>
                </g>
                <g transform="matrix(2.89021,0,0,2.89021,927.17,-1054.78)">
                    <path d="M1442.1,728.247L1433.79,704.383L1435.68,549.446L1400.12,549.27L1390.75,563.195L1390.75,537.338L1435.68,537.515L1437.41,489.844L1433.01,468.75L1451.48,468.75L1446.79,489.844L1448.52,537.338L1493.46,537.338L1493.46,563.195L1484.08,549.27L1448.52,549.27L1450.41,704.383L1442.1,728.247Z" style="fill:rgb(116,46,18);"/>
                    <path d="M1436.4,730.233C1437.24,732.66 1439.53,734.286 1442.1,734.286C1444.67,734.286 1446.96,732.66 1447.81,730.233L1456.11,706.369C1456.35,705.708 1456.46,705.011 1456.45,704.31C1456.45,704.31 1454.98,584.045 1454.63,555.309C1454.63,555.309 1480.87,555.309 1480.87,555.309C1480.87,555.309 1488.45,566.567 1488.45,566.567C1489.93,568.771 1492.68,569.746 1495.22,568.971C1497.76,568.195 1499.5,565.851 1499.5,563.195L1499.5,537.338C1499.5,534.003 1496.79,531.299 1493.46,531.299L1454.34,531.299C1454.34,531.299 1452.85,490.398 1452.85,490.398C1452.85,490.398 1457.37,470.06 1457.37,470.06C1457.77,468.272 1457.33,466.4 1456.19,464.971C1455.04,463.542 1453.31,462.711 1451.48,462.711L1433.01,462.711C1431.19,462.711 1429.47,463.53 1428.33,464.941C1427.18,466.352 1426.73,468.204 1427.1,469.984L1431.35,490.359C1431.35,490.359 1429.86,531.452 1429.86,531.452C1429.86,531.452 1390.77,531.299 1390.77,531.299C1389.16,531.292 1387.62,531.926 1386.48,533.059C1385.35,534.192 1384.71,535.732 1384.71,537.338L1384.71,563.195C1384.71,565.851 1386.44,568.195 1388.98,568.971C1391.52,569.746 1394.27,568.771 1395.76,566.567L1403.33,555.325C1403.33,555.325 1429.57,555.455 1429.57,555.455C1429.57,555.455 1427.75,704.31 1427.75,704.31C1427.74,705.011 1427.86,705.708 1428.09,706.369L1436.4,730.233ZM1442.1,728.247L1433.79,704.383L1435.68,549.446L1400.12,549.27L1390.75,563.195L1390.75,537.338L1435.68,537.515L1437.41,489.844L1433.01,468.75L1451.48,468.75L1446.79,489.844L1448.52,537.338L1493.46,537.338L1493.46,563.195L1484.08,549.27L1448.52,549.27L1450.41,704.383L1442.1,728.247Z" style="fill:rgb(210,138,45);"/>
                </g>
            </g>
        </g>
    </g>
</svg>
